<svg width="100" height="97" viewBox="0 0 100 97" fill="none" xmlns="http://www.w3.org/2000/svg">
<path d="M70.834 58.1219V46.0742C70.834 45.3548 70.834 44.9951 70.7201 44.6775C70.6194 44.3967 70.4551 44.1409 70.239 43.9286C69.9947 43.6886 69.6602 43.5278 68.9914 43.206L50.0006 34.0713M16.6673 38.0797V65.3636C16.6673 66.8544 16.6673 67.5998 16.9091 68.2524C17.1228 68.8294 17.4711 69.3515 17.9272 69.7788C18.4432 70.2622 19.1476 70.5728 20.5563 71.1939L47.223 82.952C48.2448 83.4025 48.7557 83.6278 49.2879 83.7167C49.7595 83.7955 50.2418 83.7955 50.7134 83.7167C51.2456 83.6278 51.7565 83.4025 52.7783 82.952L79.445 71.1939C80.8537 70.5728 81.5581 70.2622 82.0741 69.7788C82.5302 69.3515 82.8785 68.8294 83.0922 68.2524C83.334 67.5998 83.334 66.8544 83.334 65.3636V38.0797M8.33398 34.0713L48.5099 14.7461C49.0565 14.4832 49.3298 14.3517 49.6165 14.3C49.8704 14.2542 50.1309 14.2542 50.3848 14.3C50.6715 14.3517 50.9448 14.4832 51.4914 14.7461L91.6673 34.0713L51.4914 53.3964C50.9448 53.6593 50.6715 53.7908 50.3848 53.8425C50.1309 53.8883 49.8704 53.8883 49.6165 53.8425C49.3298 53.7908 49.0565 53.6593 48.5099 53.3964L8.33398 34.0713Z" stroke="black" stroke-width="5" stroke-linecap="round" stroke-linejoin="round"/>
</svg>
